<svg viewBox="0 0 100 100" xmlns="http://www.w3.org/2000/svg">
    <!-- O -->
    <path d="M5 25 v50 a20,20 0 1,0 40,0 v-50 a -20,-20 0 1,0 -40,0 m5,0 v50 a15,15 0 1,0 30,0 v-50 a -15,-15 0 1,0 -30,0" 
          stroke="#000" fill="#e0e" fill-rule="evenodd" stroke-width="1" />
    <!-- m -->
    <path d="M50 50 v45 h5 v-35 a10,10 0 0,1 15,0 v-5 a-7.5,-3 0 1,0 -15,0 v-5 h-5" 
          stroke="#000" fill="#0e0" fill-rule="evenodd" stroke-width="1" />
    <!-- n -->
    <path d="M70 50 v45 h5 v-35 a10,10 0 0,1 15,0 v-5 a-7.5,-3 0 1,0 -15,0 v-5 h-5"
          stroke="#000" fill="#ee0" fill-rule="evenodd" stroke-width="1" />
    <!-- i -->
    <path d="M90 50 v45 h5 v-45 h-5"
          stroke="#000" fill="#e00" fill-rule="evenodd" stroke-width="1" />
    <circle cx="92.5" cy="42.5" r="2.5" 
            stroke="#000" fill="#e00" fill-rule="evenodd" stroke-width="1" />
</svg>